<svg width="676" height="175" viewBox="0 0 676 175" fill="none" xmlns="http://www.w3.org/2000/svg">
<path d="M308.449 104.271C308.705 104.412 308.799 104.736 308.65 104.988C304.697 111.75 299.093 117.648 293.28 121.26C285.794 126.038 275.881 128.213 265.972 128.213C253.639 128.213 243.511 125.171 234.702 116.481C225.894 107.79 221.05 95.1873 221.05 81.5017C221.05 67.8161 226.115 53.6925 235.803 43.9157C243.511 36.311 253.639 31.5321 266.854 31.5321C281.607 31.5321 291.075 37.8319 296.582 43.4808C308.473 55.6484 309.574 72.5949 309.574 82.1556V84.2466C309.574 84.5316 309.34 84.7626 309.051 84.7626H243.645C243.337 84.7626 243.088 85.0206 243.112 85.3236C243.675 91.7014 246.503 98.7992 250.997 103.23C256.059 108.225 262.229 109.095 267.51 109.095C273.458 109.095 277.861 107.793 282.263 104.532C285.851 101.823 288.63 98.3192 290.601 94.9713C290.744 94.7283 291.048 94.6473 291.297 94.7853L308.443 104.274L308.449 104.271ZM286.916 67.3751C287.247 67.3751 287.502 67.0721 287.439 66.7511C286.472 62.0172 284.115 57.9043 280.95 54.9914C278.086 52.3845 273.464 49.7776 266.416 49.7776C258.93 49.7776 254.083 52.8195 251.222 55.6424C248.288 58.3333 245.949 62.4012 244.782 66.7241C244.694 67.0511 244.952 67.3751 245.296 67.3751H286.916Z" fill="#FAF9FA"/>
<path d="M458.321 60.7212C458.321 61.1711 457.776 61.3901 457.442 61.0811C447.84 52.2494 438.526 50.6114 432.117 50.6114C421.985 50.6114 415.6 54.7393 411.635 58.6512C407.67 62.5631 403.708 69.5139 403.708 79.7256C403.708 89.9373 407.892 97.5421 412.076 101.67C416.92 106.233 423.746 109.056 431.676 109.056C440.138 109.056 450.026 105.846 457.43 98.2711C457.758 97.9351 458.324 98.1481 458.324 98.6131V120.713C458.324 120.893 458.235 121.058 458.08 121.151C452.774 124.379 444.233 128.171 430.137 128.171C414.721 128.171 403.711 123.827 394.902 114.702C388.295 107.967 381.688 97.1041 381.688 80.3736C381.688 63.6431 388.955 51.6944 395.781 44.9596C403.048 37.7898 414.718 31.49 432.995 31.49C439.977 31.49 448.253 32.555 458.041 37.8558C458.211 37.9488 458.321 38.1288 458.321 38.3178V60.7152V60.7212Z" fill="#FAF9FA"/>
<path d="M569.382 79.6207C569.382 107.649 547.8 128.069 519.835 128.069C491.871 128.069 470.289 107.646 470.289 79.6207C470.289 51.5955 491.871 31.3881 519.835 31.3881C547.8 31.3881 569.382 51.3765 569.382 79.6207ZM547.359 79.8367C547.359 58.9783 533.485 50.5065 519.832 50.5065C506.18 50.5065 492.306 58.9813 492.306 79.8367C492.306 97.4342 502.875 108.951 519.832 108.951C536.79 108.951 547.359 97.4372 547.359 79.8367Z" fill="#FAF9FA"/>
<path d="M228.186 31.6401H199.835V18.1645C199.835 8.21076 191.656 0.137996 181.564 0.137996H179.296C178.718 0.137996 178.253 0.599983 178.253 1.16697V31.6371H139.61V1.02897C139.61 0.458987 139.142 0 138.567 0H136.299C126.21 0 118.031 8.06977 118.031 18.0235V31.6401H90.9873C90.513 31.6401 90.291 32.2071 90.6407 32.5251C92.7174 34.418 94.6908 36.461 96.5304 38.6659C99.495 42.2238 102.152 46.2557 104.521 50.6505C104.7 50.9835 105.05 51.1935 105.43 51.1935H118.031V124.727C118.031 125.012 118.265 125.243 118.554 125.243H139.09C139.379 125.243 139.613 125.012 139.613 124.727V51.1935H178.256V124.868C178.256 125.153 178.49 125.384 178.779 125.384H199.315C199.604 125.384 199.838 125.153 199.838 124.868V51.1935H212.496C212.889 51.1935 213.244 50.9715 213.421 50.6265C216.355 44.7947 220.119 39.4669 224.634 34.91C225.504 34.052 227.407 32.3421 228.006 31.8051L228.189 31.6401H228.186Z" fill="#FAF9FA"/>
<path d="M104.229 115.044C104.217 114.573 104.202 114.105 104.187 113.637C103.727 99.6781 102.186 87.6095 99.58 77.3528C98.3121 72.3549 96.7888 67.789 95.0161 63.6401C92.5015 57.7513 89.4791 52.7055 85.9581 48.4786C83.0938 45.0377 79.8951 42.1368 76.3711 39.7608C75.9514 39.4788 75.5288 39.2028 75.1001 38.9359C74.2426 38.4019 73.37 37.8949 72.476 37.4209C72.1416 37.2439 71.8071 37.0699 71.4665 36.9019C71.2415 36.7879 71.0135 36.6769 70.7885 36.5689C70.3142 36.3409 69.8337 36.1219 69.3503 35.9089C69.1466 35.8189 68.9428 35.7319 68.7391 35.645C67.982 35.327 67.2127 35.027 66.4343 34.745C66.261 34.682 66.0847 34.619 65.9113 34.559C63.3025 33.653 60.5629 32.954 57.6926 32.453C57.1544 32.36 56.6101 32.273 56.0628 32.1921C55.5155 32.1111 54.9621 32.0391 54.4057 31.9731C53.7489 31.8951 53.083 31.8291 52.4141 31.7721C51.663 31.7061 50.9059 31.6551 50.1397 31.6131C49.2701 31.5681 48.3883 31.5381 47.4974 31.5231C21.263 31.5291 0 52.5075 0 78.3847C0 104.262 21.263 125.243 47.4944 125.243C56.5554 125.243 64.6282 123.146 71.4392 119.466C70.9983 104.604 69.7091 93.3663 67.459 84.8405C64.8867 89.3104 60.3197 94.7703 52.8428 96.5642C41.1182 99.3781 29.1382 91.2364 28.4571 79.3507C27.8307 68.41 36.6394 59.3443 47.5947 59.3443C47.8684 59.3443 48.1359 59.3503 48.4065 59.3593C48.4126 59.3593 48.4187 59.3593 48.4278 59.3593C48.6863 59.3683 48.9447 59.3773 49.2001 59.3923C49.5498 59.4133 49.8934 59.4433 50.234 59.4793C50.5745 59.5153 50.912 59.5573 51.2434 59.6083C52.0735 59.7313 52.8762 59.8993 53.6516 60.1092C53.9617 60.1932 54.2688 60.2832 54.5729 60.3792C56.0841 60.8622 57.4949 61.5132 58.8085 62.3172C59.07 62.4792 59.3315 62.6442 59.5869 62.8182C59.8058 62.9682 60.0247 63.1242 60.2376 63.2802C60.3045 63.3282 60.3683 63.3792 60.4352 63.4302C60.5872 63.5442 60.7362 63.6612 60.8852 63.7781C60.9552 63.8351 61.0251 63.8921 61.095 63.9491C61.247 64.0751 61.396 64.2011 61.5481 64.3331C61.6028 64.3811 61.6606 64.4291 61.7153 64.4771C61.9038 64.6451 62.0893 64.8131 62.2717 64.9901C62.3113 65.0291 62.3508 65.0651 62.3903 65.1041C62.5667 65.2721 62.74 65.4461 62.9103 65.6231C62.968 65.6831 63.0288 65.7461 63.0866 65.8091C63.193 65.9231 63.2995 66.0371 63.4059 66.1541C63.5458 66.3071 63.6856 66.4661 63.8224 66.6251C63.8741 66.6851 63.9289 66.7481 63.9806 66.8111C64.1934 67.0631 64.4032 67.321 64.61 67.582C64.6586 67.639 64.7042 67.699 64.7498 67.756C66.9968 70.6629 68.8182 74.2508 70.2929 78.3937C70.3081 78.4327 70.3202 78.4717 70.3354 78.5107C70.4084 78.7207 70.4844 78.9337 70.5544 79.1467C70.5878 79.2427 70.6213 79.3387 70.6517 79.4347C70.7277 79.6597 70.8007 79.8877 70.8736 80.1157C70.904 80.2117 70.9375 80.3077 70.9679 80.4037C71.0409 80.6347 71.1138 80.8657 71.1838 81.0996C71.2142 81.1956 71.2446 81.2946 71.2719 81.3906C71.3419 81.6276 71.4118 81.8646 71.4817 82.1016C71.5091 82.2006 71.5395 82.2966 71.5669 82.3956C71.6338 82.6356 71.7007 82.8786 71.7676 83.1216C71.7949 83.2206 71.8223 83.3226 71.8497 83.4216C71.9135 83.6646 71.9804 83.9106 72.0412 84.1596C72.0686 84.2616 72.0929 84.3636 72.1203 84.4656C72.1841 84.7145 72.2449 84.9665 72.3058 85.2155C72.3301 85.3175 72.3574 85.4195 72.3818 85.5245C72.4426 85.7765 72.5004 86.0315 72.5581 86.2865C72.5825 86.3915 72.6068 86.4965 72.6311 86.6015C72.6889 86.8565 72.7436 87.1115 72.8014 87.3695C72.8257 87.4775 72.85 87.5885 72.8713 87.6965C72.926 87.9514 72.9777 88.2124 73.0325 88.4704C73.0568 88.5814 73.0781 88.6954 73.1024 88.8064C73.1541 89.0644 73.2058 89.3224 73.2544 89.5834C73.2757 89.7004 73.3 89.8174 73.3213 89.9344C73.37 90.1894 73.4156 90.4504 73.4642 90.7084C73.4855 90.8314 73.5098 90.9544 73.5311 91.0774C73.5767 91.3324 73.6223 91.5904 73.6649 91.8483C73.6862 91.9773 73.7105 92.1063 73.7318 92.2353C73.7744 92.4903 73.8169 92.7453 73.8565 93.0033C73.8777 93.1383 73.9021 93.2733 73.9234 93.4113C73.9629 93.6603 74.0024 93.9123 74.0389 94.1643C74.0602 94.3083 74.0845 94.4553 74.1058 94.5993C74.1423 94.8453 74.1757 95.0912 74.2122 95.3402C74.2335 95.4932 74.2578 95.6492 74.2791 95.8022C74.3126 96.0422 74.346 96.2852 74.3764 96.5282C74.3977 96.6932 74.422 96.8552 74.4433 97.0202C74.4737 97.2542 74.5041 97.4882 74.5315 97.7252C74.5528 97.9022 74.5771 98.0762 74.5984 98.2532C74.6257 98.4781 74.6531 98.7031 74.6774 98.9281C74.6987 99.1171 74.723 99.3091 74.7443 99.4981C74.7687 99.7111 74.7899 99.9241 74.8143 100.137C74.8386 100.344 74.8599 100.548 74.8812 100.755C74.9024 100.953 74.9207 101.151 74.942 101.352C74.9663 101.577 74.9876 101.802 75.0119 102.027C75.0301 102.207 75.0453 102.39 75.0636 102.573C75.0879 102.819 75.1122 103.062 75.1335 103.308C75.1487 103.467 75.1609 103.629 75.1761 103.788C75.2004 104.061 75.2247 104.331 75.2491 104.604C75.2612 104.733 75.2703 104.862 75.2825 104.994C75.3068 105.3 75.3342 105.603 75.3585 105.912C75.3646 106.008 75.3737 106.104 75.3798 106.2C75.4072 106.542 75.4315 106.887 75.4589 107.232C75.4619 107.28 75.4649 107.325 75.468 107.373C75.6869 110.394 75.8481 113.499 75.9667 116.676C76.0001 117.57 76.0305 118.473 76.0548 119.376C76.0792 120.258 76.1035 121.145 76.1217 122.036C76.143 122.933 76.1582 123.836 76.1734 124.742C76.1765 125.024 76.4075 125.249 76.6934 125.249H103.813C104.101 125.249 104.336 125.018 104.336 124.733V120.705C104.329 119.763 104.317 118.827 104.302 117.897C104.287 116.937 104.266 115.989 104.238 115.047L104.229 115.044Z" fill="#91D3C9"/>
<path d="M382.765 36.7579C376.872 33.35 370.015 31.3881 362.687 31.3881C343.057 31.3881 326.76 45.4277 323.518 63.8801C323.132 66.0731 322.922 68.323 322.922 70.6209V124.73C322.922 125.015 323.156 125.246 323.445 125.246H343.714C344.003 125.246 344.237 125.015 344.237 124.73V78.4747C344.237 72.4689 344.237 63.8861 350.108 57.6643C354.241 53.3744 358.808 52.7295 363.372 52.7295C365.47 52.7295 369.185 52.9274 373.737 55.6364C374.005 55.7954 374.357 55.6994 374.485 55.4204L382.941 36.8569C382.883 36.8239 382.825 36.7909 382.768 36.7579H382.765Z" fill="#FAF9FA"/>
<path d="M675.597 78.9668C675.597 49.8526 654.896 31.3851 630.453 31.3851C630.216 31.3851 629.997 31.4031 629.763 31.4061C629.492 31.4031 629.225 31.3851 628.954 31.3851C625.551 31.3851 622.225 31.7241 619.008 32.3691C606.742 34.592 598.444 40.4029 592.85 47.6717C587.921 53.5545 583.08 62.4612 582.08 75.2079C582.004 76.1678 581.35 86.3766 581.35 89.3975V174.484C581.35 174.769 581.584 175 581.873 175H602.409C602.698 175 602.932 174.769 602.932 174.484V114.6C612.091 125.687 624.186 127.847 629.766 128.051C630.091 128.063 630.401 128.072 630.681 128.072C640.514 128.072 650.521 124.421 658.588 117.648C658.931 117.36 659.278 117.069 659.612 116.769C659.701 116.691 659.789 116.613 659.874 116.535C669.622 107.826 675.603 94.8453 675.603 79.8367C675.603 79.6897 675.594 79.5458 675.594 79.3988C675.594 79.2548 675.603 79.1168 675.603 78.9698L675.597 78.9668ZM627.811 108.951C614.158 108.951 601.607 99.1742 601.607 80.0557C601.607 60.9373 614.158 50.5066 627.811 50.5066C643.445 50.5066 653.574 63.5442 653.574 79.8367C653.574 96.1293 643.445 108.951 627.811 108.951Z" fill="#FAF9FA"/>
</svg>
