<svg xmlns="http://www.w3.org/2000/svg" width="239" height="41" viewBox="0 0 239 41" fill="none">
<g clip-path="url(#clip0_99_41414)">
<path d="M10.2434 21.0362C12.418 23.734 15.4878 25.5805 18.907 26.2473L9.26709 37.3295C6.34184 34.7794 4.51654 31.2139 4.16794 27.3692C3.81934 23.5244 4.97405 19.6938 7.39373 16.668C8.1496 18.2404 9.10778 19.7093 10.2444 21.038" fill="#008CA2"/>
<path d="M21.2701 19.8328C22.5232 16.5916 22.5908 13.0179 21.4611 9.73242L35.8869 12.53C35.1683 16.312 32.9975 19.6707 29.8308 21.8998C26.6641 24.1289 22.7483 25.0547 18.9067 24.4826C19.8933 23.0398 20.687 21.477 21.2701 19.8328Z" fill="#008CA2"/>
<path d="M14.2971 10.5772C10.8551 11.1162 7.71762 12.847 5.44251 15.462L0.655762 1.58488C4.32542 0.329949 8.34375 0.536908 11.8623 2.16206C15.3808 3.78721 18.1241 6.70335 19.513 10.2947C17.7694 10.1632 16.016 10.2576 14.2971 10.5754" fill="#008CA2"/>
<path d="M43.2319 15.1452C43.2319 11.5797 45.2345 10.7441 48.6001 10.7441H52.9918C58.3092 10.7441 58.9995 11.886 58.9654 15.3299H55.2306V14.9944C55.2306 14.1204 54.5911 13.8681 53.4773 13.8681H49.4076C47.441 13.8681 47.0719 14.7923 47.0719 16.3017V17.6118C47.0719 19.3763 47.441 20.0473 49.2091 20.0473H53.1967C54.879 20.0473 55.3838 19.8809 55.3838 18.3679H59.1204V19.5098C59.1204 21.5595 58.3821 23.1722 54.6271 23.1722H48.6001C45.2345 23.1722 43.2319 22.3329 43.2319 18.7711V15.1452Z" fill="#B0AFA7"/>
<path d="M60.9932 17.7315C60.9932 14.9084 62.8951 14.3379 64.5442 14.3379H69.3734C71.0225 14.3379 72.9245 14.9084 72.9245 17.7315V19.7812C72.9245 22.6034 71.0225 23.1739 69.3734 23.1739H64.5442C62.8951 23.1739 60.9932 22.6034 60.9932 19.7812V17.7315ZM64.2231 19.1595C64.2231 20.3855 64.9466 20.7558 66.4277 20.7558H67.202C69.2885 20.7558 69.6937 20.4815 69.6937 19.3451V18.1685C69.6937 17.0257 69.2895 16.7569 67.202 16.7569H66.4277C64.9466 16.7569 64.2231 17.1226 64.2231 18.3532V19.1595Z" fill="#B0AFA7"/>
<path d="M74.9223 14.4723H77.952V16.1014H77.9852C78.3543 14.7411 79.6675 14.3379 81.1311 14.3379C83.4871 14.3379 84.4127 15.3435 84.4127 17.7141C84.4127 17.9326 84.3952 18.1713 84.3786 18.4702H81.5843C81.5843 17.3786 81.3323 16.8575 80.0367 16.8575C78.9293 16.8575 78.1513 17.2781 78.1513 18.3029V23.0404H74.9214L74.9223 14.4723Z" fill="#B0AFA7"/>
<path d="M89.56 13.3975H86.3301V10.877H89.56V13.3975ZM89.56 23.0408H86.3301V14.4726H89.56V23.0408Z" fill="#B0AFA7"/>
<path d="M91.7437 17.7315C91.7437 14.9084 93.6456 14.3379 95.2947 14.3379H100.124C101.773 14.3379 103.675 14.9084 103.675 17.7315V19.7812C103.675 22.6034 101.773 23.1739 100.124 23.1739H95.2947C93.6456 23.1739 91.7437 22.6034 91.7437 19.7812V17.7315ZM94.9736 19.1595C94.9736 20.3855 95.698 20.7558 97.1792 20.7558H97.9525C100.039 20.7558 100.444 20.4815 100.444 19.3451V18.1685C100.444 17.0257 100.04 16.7569 97.9525 16.7569H97.1792C95.698 16.7569 94.9736 17.1226 94.9736 18.3532V19.1595Z" fill="#B0AFA7"/>
<path d="M105.855 10.877H109.085V23.0408H105.855V10.877Z" fill="#B0AFA7"/>
<path d="M114.913 13.3975H111.683V10.877H114.913V13.3975ZM114.913 23.0408H111.683V14.4726H114.913V23.0408Z" fill="#B0AFA7"/>
<path d="M120.33 20.3709C120.33 20.8408 120.499 21.1599 122.333 21.1599H123.478C125.009 21.1599 125.395 21.0428 125.395 20.5199C125.395 20.0162 125.144 19.8141 123.998 19.8141H120.97C117.957 19.7977 117.066 19.1431 117.066 16.7908C117.066 14.657 118.782 14.3379 121.004 14.3379H123.258C127.482 14.3379 128.223 14.9257 128.256 16.9416H125.026C124.857 16.4379 124.556 16.3538 122.621 16.3538C120.752 16.3538 120.398 16.404 120.398 16.9937C120.398 17.364 120.651 17.4984 122.336 17.4984H124.575C128.445 17.4984 128.728 18.792 128.728 20.3206C128.728 22.5888 127.82 23.1757 124.135 23.1757H121.072C118.094 23.1757 117 22.4873 117 20.3709H120.33Z" fill="#B0AFA7"/>
<path d="M138.077 11.0195H147.989C150.185 11.0195 151.432 11.484 151.432 14.2906C151.432 16.9648 151.216 18.3133 147.673 18.3133H139.706V23.0462H138.077V11.0195ZM149.797 14.1279C149.797 12.6999 149.016 12.3506 147.602 12.3506H139.702V16.984H147.73C149.028 16.984 149.792 16.5186 149.792 15.2734L149.797 14.1279Z" fill="#008CA2"/>
<path d="M153.439 11.0195H154.87V16.0341H154.903C155.434 14.7231 156.549 14.4406 158.329 14.4406H160.374C163.051 14.4406 163.901 15.7854 163.901 17.3131V23.0426H162.47V17.6614C162.47 16.4162 162.12 15.6026 159.344 15.6026H158.974C155.631 15.6026 154.867 16.2334 154.867 18.2273V23.0426H153.437L153.439 11.0195Z" fill="#008CA2"/>
<path d="M175.355 22.1942H175.322C174.939 22.9585 174.491 23.1733 172.295 23.1733H168.869C166.706 23.1733 166.141 22.2271 166.141 20.6327V20.0686C166.141 18.1423 167.505 17.9101 170 17.9101H172.295C174.157 17.9101 174.823 18.1094 175.322 18.9222H175.355V17.3287C175.355 15.801 174.39 15.6017 172.194 15.6017H170.099C168.303 15.6017 167.953 16.0332 167.953 16.7308V17.0334H166.524V16.6183C166.524 15.0742 167.505 14.4434 170.065 14.4434H172.328C174.989 14.4434 176.786 14.842 176.786 17.3689V23.0481H175.355V22.1942ZM175.355 20.3849C175.355 19.222 174.323 19.073 172.125 19.073H169.929C168.083 19.073 167.567 19.3381 167.567 20.4014V20.6665C167.567 21.6137 167.9 22.0113 169.862 22.0113H171.758C174.353 22.0113 175.351 21.8285 175.351 20.7671L175.355 20.3849Z" fill="#008CA2"/>
<path d="M179.425 14.574H180.756V15.8027H180.789C181.037 15.3469 181.416 14.9742 181.878 14.7319C182.34 14.4896 182.864 14.3885 183.384 14.4415H184.73C187.407 14.4415 188.29 15.3045 188.29 17.3807V18.3937H186.96V18.028C186.96 15.9353 186.527 15.6034 183.983 15.6034H183.097C182.809 15.5729 182.517 15.6039 182.242 15.6942C181.967 15.7846 181.715 15.9322 181.502 16.1273C181.289 16.3223 181.121 16.5602 181.009 16.825C180.897 17.0898 180.843 17.3753 180.852 17.6623V23.0434H179.421L179.425 14.574Z" fill="#008CA2"/>
<path d="M189.984 14.5733H191.311V15.5716H191.345C191.943 14.6912 192.759 14.4425 194.189 14.4425H196.496C197.061 14.3879 197.63 14.5085 198.123 14.7877C198.615 15.067 199.008 15.4911 199.247 16.0013C199.781 14.8558 200.928 14.4407 202.39 14.4407H204.121C206.416 14.4407 207.83 15.4363 207.83 17.3662V23.0454H206.4V17.529C206.4 16.5498 205.967 15.6027 203.688 15.6027H202.673C200.095 15.6027 199.746 16.666 199.746 18.0272V23.0427H198.316V17.9111C198.316 16.2655 197.8 15.6027 195.522 15.6027H194.091C192.261 15.6027 191.414 16.367 191.414 17.7283V23.0427H189.984V14.5733Z" fill="#008CA2"/>
<path d="M219.283 22.1942H219.25C218.867 22.9585 218.419 23.1733 216.223 23.1733H212.796C210.634 23.1733 210.069 22.2271 210.069 20.6327V20.0686C210.069 18.1423 211.432 17.9101 213.928 17.9101H216.227C218.09 17.9101 218.755 18.1094 219.254 18.9222H219.288V17.3287C219.288 15.801 218.323 15.6017 216.127 15.6017H214.032C212.236 15.6017 211.886 16.0332 211.886 16.7308V17.0334H210.456V16.6183C210.456 15.0742 211.437 14.4434 213.998 14.4434H216.261C218.921 14.4434 220.718 14.842 220.718 17.3689V23.0481H219.288L219.283 22.1942ZM219.283 20.3849C219.283 19.222 218.251 19.073 216.053 19.073H213.858C212.012 19.073 211.495 19.3381 211.495 20.4014V20.6665C211.495 21.6137 211.827 22.0113 213.79 22.0113H215.687C218.281 22.0113 219.279 21.8285 219.279 20.7671L219.283 20.3849Z" fill="#008CA2"/>
</g>
<defs>
<clipPath id="clip0_99_41414">
<rect width="237.642" height="39.4018" fill="white" transform="translate(0.65625 0.761719)"/>
</clipPath>
</defs>
</svg>