<svg xmlns="http://www.w3.org/2000/svg" width="111" height="50" viewBox="0 0 111 50" fill="none">
<g clip-path="url(#clip0_718_3521)">
<path d="M40.7466 20.5746L28.8672 31.7785V0L40.7466 20.5746Z" fill="#0F131E"/>
<path d="M28.8674 31.7793L57.7348 50.0008H0L28.8674 31.7793Z" fill="#9AB4D0"/>
<path d="M28.8674 0V31.7785L0 50L28.8674 0Z" fill="#CFD9E3"/>
<path d="M28.8672 31.7781L40.7466 20.5742L57.7346 49.9996L28.8672 31.7781Z" fill="#30A1EF"/>
<path d="M68.129 21.9824V24.1622H64.5459V25.8183H67.3062V27.9435H64.5459V31.7794H62.3389V21.9824H68.129Z" fill="#CFD9E3"/>
<path d="M74.9656 21.9824V29.5807H78.7742V31.7747H72.7598V21.9824H74.9656Z" fill="#CFD9E3"/>
<path d="M85.4856 21.9824V31.7794H83.2773V21.9824H85.4856Z" fill="#CFD9E3"/>
<path d="M93.0129 31.7785H90.8047V21.8711L96.9866 27.1008V21.9815H99.2174V31.8889L93.0129 26.6592V31.7785Z" fill="#CFD9E3"/>
<path d="M103.619 24.1622V21.9824H110.532V24.1622H108.172V31.7794H105.965V24.1622H103.619Z" fill="#CFD9E3"/>
</g>
<defs>
<clipPath id="clip0_718_3521">
<rect width="110.532" height="50" fill="white"/>
</clipPath>
</defs>
</svg>