<?xml version="1.0" encoding="UTF-8"?>
<svg xmlns="http://www.w3.org/2000/svg" width="81" height="35" viewBox="0 0 81 35" fill="none">
  <path d="M52.8015 16.0395C51.367 21.1682 46.7166 25.0364 40.8044 25.0364C33.0679 25.0364 28.1562 19.0813 28.1562 12.5182C28.1562 5.52108 33.5032 0 40.5874 0C46.2384 0 51.3228 3.48249 52.8015 9.17233H48.1511C46.9335 5.99925 43.9775 4.21649 40.7615 4.21649C38.3707 4.17363 36.6321 4.95584 34.9806 6.52028C33.589 7.91194 32.6768 10.1273 32.6768 12.5182C32.6768 17.387 36.241 20.8226 40.7615 20.8226C44.7168 20.7797 47.1907 18.3889 48.1511 16.0422L52.8015 16.0395Z" fill="#FFD200"></path>
  <path d="M69.0464 0.00292969C64.8312 0.00292969 61.7881 2.00268 60.0067 4.82483V0.699428L55.7031 2.77954V32.9499H60.2237V20.4317C61.2671 22.3444 64.179 25.0393 69.0906 25.0393C76.1748 25.0393 80.9993 19.3455 80.9993 12.6524C80.9993 6.7844 77.1753 0.00292969 69.0464 0.00292969ZM76.4359 12.5211C76.4359 17.1287 73.0017 20.8255 68.2213 20.8255C67.1342 20.8321 66.0565 20.6245 65.0496 20.2145C64.0428 19.8045 63.1265 19.2002 62.3533 18.436C60.88 16.9626 60.0067 14.9147 60.0067 12.568C60.0067 10.2213 60.8759 8.13453 62.3091 6.65582C63.0715 5.87407 63.9848 5.25528 64.9934 4.83694C66.0021 4.4186 67.0852 4.20943 68.1771 4.22209C73.6982 4.22209 76.4359 8.61271 76.4359 12.4809V12.5211Z" fill="#FFD200"></path>
  <path d="M20.7328 4.69759C20.4842 4.20641 20.1794 3.7457 19.8247 3.32469L19.7979 3.33808V3.2912C18.1772 1.37851 15.4247 0.00292969 12.2141 0.00292969C5.34561 0.00292969 0 5.21862 0 12.6082C0 19.6495 5.12862 25.0393 12.2141 25.0393C16.4735 25.0393 19.3425 22.8226 20.7328 20.1719V22.6029C20.7328 27.9057 16.6476 30.8176 12.6963 30.8176C11.2424 30.7924 9.82532 30.3554 8.60978 29.5572C7.43645 28.8178 6.52431 27.8615 6.00194 26.8194L1.66355 28.9183C3.40479 32.0498 7.02792 34.6858 12.5222 34.6858C16.6074 34.6858 20.3029 32.9044 22.4754 30.3836C24.2167 28.3839 25.2574 25.7318 25.2574 21.6024V0.699428L20.7369 2.88536L20.7328 4.69759ZM18.5228 18.4333C17.0883 19.9067 15.0885 20.8228 12.699 20.8228C7.70032 20.8228 4.52858 16.9546 4.52858 12.5184V12.4756C4.52858 7.60681 8.22269 4.26094 12.699 4.26094C15.5667 4.26094 17.6107 5.39007 18.9139 7.04157C20.2185 8.64887 20.8266 10.7799 20.8266 12.6497C20.777 14.9562 19.9078 16.9988 18.5228 18.4333Z" fill="#FFD200"></path>
</svg>
