<svg width="115" height="28" viewBox="0 0 115 28" fill="none" xmlns="http://www.w3.org/2000/svg">
                        <path d="M25.8164 28L12.7227 13.2658L4.51915 19.4915V28H0V0H4.51915V14.4983L23.5967 0H30.1096L16.1839 10.5951L31.6148 28H25.8164Z" fill="#49004B"></path>
                        <path d="M68.1026 28L55.0098 13.2658L46.8035 19.4915V28H42.2835V0H46.8035V14.4983L65.8839 0H72.3958L58.4692 10.5951L73.9037 28H68.1026Z" fill="#49004B"></path>
                        <path d="M109.764 28L102.391 17.3247H88.6136V28H84.1027V0H105.589C111.311 0 114.768 3.40303 114.768 8.81712C114.768 13.7641 111.759 16.398 107.695 17.0916L115 28.0009H109.764V28ZM110.144 8.81618C110.144 5.71985 108.295 4.2118 104.503 4.2118H88.6136V13.1063H104.909C108.295 13.1063 110.144 11.5605 110.144 8.81618Z" fill="#49004B"></path>
                    </svg>