<svg xmlns="http://www.w3.org/2000/svg" fill="none" viewBox="0 0 284 20"><path fill="#393E8C" fill-rule="evenodd" d="M131.018 14.9896c-1.575 2.5917-4.516 4.241-7.877 4.241-5.54 0-9.557-4.1363-9.557-9.5291 0-5.3929 4.017-9.5291 9.557-9.5291 3.335 0 6.276 1.6492 7.877 4.241l-3.623 2.0942c-.814-1.4136-2.39-2.2513-4.254-2.2513-3.256 0-5.356 2.1728-5.356 5.4452 0 3.2723 2.1 5.4452 5.356 5.4452 1.864 0 3.466-.8378 4.254-2.2514l3.623 2.0943ZM133.25.5389h4.201V18.864h-4.201V.5389Zm14.966 18.3251V4.5704h4.726V.5388h-13.653v4.0316h4.726V18.864h4.201Zm15.36-7.0421v7.0421h-4.201v-7.0421l-6.17-11.283h4.779l3.492 7.0682 3.492-7.0683h4.779l-6.171 11.2831Zm17.329 7.0421.919-2.8797h6.827l.919 2.8797h4.595L187.916.5388h-5.356l-6.249 18.3252h4.594Zm4.332-13.5344-2.153 6.728h4.306l-2.153-6.728Zm14.704 13.5344V.5388h-4.201V18.864h4.201Zm7.352-6.0211v6.0211h-4.201V.5388h7.352c3.492 0 6.301 2.8012 6.301 6.283 0 2.2513-1.365 4.2933-3.387 5.3143l3.912 6.7279h-4.516l-3.466-6.0211h-1.995Zm3.151-3.6651h-3.151V4.4656h3.151c1.155 0 2.1 1.021 2.1 2.356 0 1.3352-.945 2.3562-2.1 2.3562Zm15.752 3.9269h-2.757v5.7593h-4.201V.5388h6.958c3.624 0 6.433 2.8012 6.433 6.283 0 3.4817-2.809 6.2829-6.433 6.2829Zm0-3.927h-2.757V4.4657h2.757c1.287 0 2.232 1.021 2.232 2.356 0 1.3352-.945 2.3562-2.232 2.3562Zm26.862.5238c0 5.3928-4.28 9.5291-9.557 9.5291-5.278 0-9.558-4.1363-9.558-9.5291 0-5.3929 4.28-9.5291 9.558-9.5291 5.277 0 9.557 4.1362 9.557 9.529Zm-9.557 5.4453c-2.993 0-5.356-2.1729-5.356-5.4453 0-3.2723 2.363-5.4451 5.356-5.4451s5.356 2.1728 5.356 5.4451c0 3.2724-2.363 5.4453-5.356 5.4453Zm16.12-2.3039v6.0211h-4.201V.5388h7.352c3.492 0 6.301 2.8012 6.301 6.283 0 2.2513-1.365 4.2933-3.387 5.3143l3.912 6.7279h-4.516l-3.466-6.0211h-1.995Zm3.151-3.6651h-3.151V4.4656h3.151c1.155 0 2.1 1.021 2.1 2.356 0 1.3352-.945 2.3562-2.1 2.3562Zm16.411-4.6074V18.864h-4.201V4.5704h-4.726V.5388h13.653v4.0316h-4.726Z" clip-rule="evenodd"></path><path fill="url(#site-logo-a)" fill-rule="evenodd" d="M10.7651 18.8641v-4.0316H4.201V.5389H0V18.864h10.7651Zm10.6066.3665c5.2776 0 9.5573-4.1363 9.5573-9.5291 0-5.3929-4.2797-9.5291-9.5573-9.5291-5.2775 0-9.5572 4.1362-9.5572 9.529 0 5.3929 4.2797 9.5292 9.5572 9.5292Zm.0002-4.0838c-2.9932 0-5.3563-2.1729-5.3563-5.4453 0-3.2723 2.3631-5.4451 5.3563-5.4451s5.3563 2.1728 5.3563 5.4451c0 3.2724-2.3631 5.4453-5.3563 5.4453Zm16.1221 3.7173v-9.948l7.0892 9.948h3.1507V.5389h-4.201v9.9479L36.4437.5388H33.293v18.3253h4.201Zm20.7424 0c5.0675 0 8.9272-3.9792 8.9272-9.1626 0-5.1834-3.8597-9.1626-8.9272-9.1626h-7.3517V18.864h7.3517Zm.0003-4.0317h-3.1508V4.5704h3.1508c2.8882 0 4.8837 1.9895 4.8837 5.131 0 3.1414-1.9955 5.131-4.8837 5.131Zm20.0589 4.3982c5.2775 0 9.5573-4.1363 9.5573-9.5291 0-5.3929-4.2798-9.5291-9.5573-9.5291s-9.5573 4.1362-9.5573 9.529c0 5.3929 4.2798 9.5292 9.5573 9.5292Zm.0001-4.0838c-2.9932 0-5.3562-2.1729-5.3562-5.4453 0-3.2723 2.363-5.4451 5.3562-5.4451 2.9932 0 5.3563 2.1728 5.3563 5.4451 0 3.2724-2.3631 5.4453-5.3563 5.4453Zm16.1221 3.7172V8.916l7.0892 9.948h3.151V.5388h-4.201v9.948L93.3676.5388h-3.1508V18.864h4.201Z" clip-rule="evenodd"></path><path fill="#393E8C" fill-rule="evenodd" d="m21.3992 13.2049-2.6755-2.5488c-.3692-.3502-.6065-.8565-.6065-1.427 0-1.0579.8016-1.9144 1.7878-1.9144.6258 0 1.1743.3445 1.4942.866.32-.5215.8684-.866 1.4943-.866.9879 0 1.7878.8565 1.7878 1.9145 0 .5704-.2374 1.0767-.6065 1.4269l-2.6756 2.5488Z" clip-rule="evenodd"></path><defs><linearGradient id="site-logo-a" x1="-8.8965" x2="-3.4701" y1="11.1437" y2="34.8352" gradientUnits="userSpaceOnUse"><stop stop-color="#00FF4C"></stop><stop offset="1" stop-color="#1DA1F2"></stop></linearGradient></defs></svg>