<svg xmlns="http://www.w3.org/2000/svg" width="185" height="47" viewBox="0 0 185 47" fill="none"><mask id="mask0_3328_3486" style="mask-type:luminance" maskUnits="userSpaceOnUse" x="0" y="0" width="185" height="47"><path d="M185 0.542412H0V46.3699H185V0.542412Z" fill="white"/></mask><g mask="url(#mask0_3328_3486)"><path fill-rule="evenodd" clip-rule="evenodd" d="M4.53896 34.8658H34.2485V20.8337H29.7096V30.323H4.53896V5.18617H29.7096V7.60899H34.2243C34.232 7.61445 34.2401 7.61455 34.2485 7.60899H34.2243C33.9559 7.41626 34.2485 0.542412 34.2485 0.542412H0V46.2733H4.53896V34.8658ZM42.0904 12.0492H12.3809V26.2832H17.023V16.592H42.0904V41.8297H16.9199V38.8012H12.3809V46.3726H46.6294V0.641727H42.0904V12.0492Z" fill="url(#paint0_linear_3328_3486)"/><path d="M78.9534 20.3399C78.9534 23.3684 78.5407 27.5074 69.8754 27.5074H65.3363V34.9778H61.4164V12.9705H69.566C78.1281 12.9705 78.9534 17.3114 78.9534 20.3399ZM74.9301 20.3399C74.9301 18.5228 74.4144 16.1 69.6691 16.1H65.3363V24.5798H69.8754C74.5175 24.5798 74.9301 22.258 74.9301 20.3399ZM85.9681 34.9778H82.2544V10.7496H85.9681V34.9778ZM103.608 34.9778L102.886 32.3531C102.061 33.7665 99.585 35.2806 95.8713 35.2806C92.0545 35.2806 88.9596 33.5646 88.9596 29.9303C88.9596 26.6999 91.3323 25.1856 96.3871 24.7818L102.061 24.277C101.958 21.7533 101.029 20.2389 97.4186 20.2389C94.1176 20.2389 93.1891 21.5513 93.1891 23.7722H89.5785C89.5785 20.138 91.126 17.3114 97.4186 17.3114C104.743 17.3114 105.774 20.4408 105.774 25.1856V34.9778H103.608ZM101.958 27.4064V26.9018L96.9028 27.4064C93.808 27.7093 92.7765 28.416 92.7765 29.7284C92.7765 31.3435 94.2207 32.2521 96.7997 32.2521C99.9976 32.3531 101.958 30.4351 101.958 27.4064ZM125.375 34.9778H121.661V25.1856C121.661 22.0561 121.145 20.2389 117.328 20.2389C113.511 20.2389 112.686 22.0561 112.686 25.1856V34.9778H108.972V17.4123H111.035L111.758 19.8351C112.377 18.6238 114.233 17.1095 118.36 17.1095C124.24 17.1095 125.375 20.4408 125.375 25.4884V34.9778ZM145.387 34.9778H143.324L142.499 32.4541C141.88 33.6655 139.92 35.1797 135.587 35.1797C129.707 35.1797 127.954 30.9397 127.954 26.1951C127.954 21.4504 129.604 17.2104 135.587 17.2104C139.094 17.2104 140.951 18.4219 141.674 19.6332V10.7496H145.387V34.9778ZM141.777 26.1951C141.777 22.7628 141.055 20.2389 136.722 20.2389C132.595 20.2389 131.77 22.6619 131.77 26.1951C131.77 29.7284 132.595 32.2521 136.722 32.2521C140.951 32.1512 141.777 29.8294 141.777 26.1951ZM165.503 29.6275C165.194 32.656 163.13 35.2806 157.457 35.2806C150.236 35.2806 148.482 30.9397 148.482 26.1951C148.482 21.4504 150.339 17.2104 157.457 17.2104C164.059 17.2104 165.916 22.1571 165.503 27.7093H152.299C152.505 30.7378 154.053 32.4541 157.25 32.4541C160.242 32.4541 161.17 31.0407 161.48 29.6275H165.503ZM161.583 24.6808C161.583 22.258 160.448 20.037 157.044 20.037C153.537 20.037 152.505 22.1571 152.299 24.7818L161.583 24.6808ZM185 34.9778H179.842L172.312 27.1036V34.9778H168.495V10.7496H172.208V24.3779L179.017 17.5133H184.277L175.097 25.7913L185 34.9778Z" fill="url(#paint1_linear_3328_3486)"/></g><defs><linearGradient id="paint0_linear_3328_3486" x1="-6.06813e-08" y1="5.64191" x2="184.875" y2="42.1051" gradientUnits="userSpaceOnUse"><stop stop-color="#DF2523"/><stop offset="0.221205" stop-color="#E3351F"/><stop offset="0.62198" stop-color="#F47111"/><stop offset="1" stop-color="#FC9109"/></linearGradient><linearGradient id="paint1_linear_3328_3486" x1="-6.06813e-08" y1="5.64191" x2="184.875" y2="42.1051" gradientUnits="userSpaceOnUse"><stop stop-color="#DF2523"/><stop offset="0.221205" stop-color="#E3351F"/><stop offset="0.62198" stop-color="#F47111"/><stop offset="1" stop-color="#FC9109"/></linearGradient></defs></svg>