<svg xmlns="http://www.w3.org/2000/svg" fill="none" viewBox="0 0 186 56" id="logo">
		<path d="M93.059 41.124a9.629 9.629 0 0 1-3.81-3.97 13.046 13.046 0 0 1-1.374-6.147 12.645 12.645 0 0 1 1.374-5.977c.873-1.683 2.2-3.09 3.83-4.058a10.609 10.609 0 0 1 5.507-1.454 9.81 9.81 0 0 1 4.597 1.014A8.135 8.135 0 0 1 106 22.95v-3.431h3.813v22.711h-3.366l-.44-3.304a8.963 8.963 0 0 1-7.429 3.567c-1.927.03-3.83-.442-5.52-1.368Zm.718-15.895a9.47 9.47 0 0 0 0 11.542 6.55 6.55 0 0 0 5.153 2.222 6.91 6.91 0 0 0 3.683-.995 6.66 6.66 0 0 0 2.499-2.794 9.277 9.277 0 0 0 .887-4.113 9.647 9.647 0 0 0-.888-4.204 6.625 6.625 0 0 0-6.182-3.875 6.56 6.56 0 0 0-5.152 2.217ZM28.917 41.06a9.927 9.927 0 0 1-3.873-4.058 12.751 12.751 0 0 1-1.375-5.997A13.074 13.074 0 0 1 25 24.985a9.826 9.826 0 0 1 3.743-4.034 10.58 10.58 0 0 1 5.508-1.433 11.255 11.255 0 0 1 5.415 1.275 9.279 9.279 0 0 1 3.725 3.71 12.196 12.196 0 0 1 1.443 5.675c0 .326-.03.841-.088 1.533l-.012.157H27.697v.135a7.331 7.331 0 0 0 1.935 5.094 6.45 6.45 0 0 0 4.835 1.9 6.587 6.587 0 0 0 3.931-1.16 5.63 5.63 0 0 0 2.155-3.227l.03-.124h3.896l-.038.197a9.4 9.4 0 0 1-3.285 5.623 9.76 9.76 0 0 1-6.433 2.19 11.54 11.54 0 0 1-5.806-1.436Zm1.092-16.485a6.108 6.108 0 0 0-2.076 4.006H40.83a6.04 6.04 0 0 0-2.013-4.09 6.738 6.738 0 0 0-4.527-1.522 6.347 6.347 0 0 0-4.282 1.606ZM66.965 41.12a9.628 9.628 0 0 1-3.81-3.97 13.034 13.034 0 0 1-1.374-6.144 12.642 12.642 0 0 1 1.374-5.977 10.169 10.169 0 0 1 3.83-4.058 10.61 10.61 0 0 1 5.508-1.454 10.042 10.042 0 0 1 4.643.994 7.805 7.805 0 0 1 2.734 2.29V13.5h3.855v28.724h-3.366l-.44-3.304a8.95 8.95 0 0 1-7.43 3.565 11.117 11.117 0 0 1-5.526-1.361l.002-.003Zm.718-15.894a9.47 9.47 0 0 0 0 11.542 6.547 6.547 0 0 0 5.151 2.221 6.908 6.908 0 0 0 3.682-.992 6.671 6.671 0 0 0 2.5-2.794 9.276 9.276 0 0 0 .889-4.12 9.63 9.63 0 0 0-.89-4.197 6.614 6.614 0 0 0-6.182-3.877 6.56 6.56 0 0 0-5.15 2.22v-.003ZM48.956 42.261V23.356h-.01v-.197a3.463 3.463 0 0 1 3.451-3.478h8.358v3.675h-7.878v18.91l-3.92-.005Zm114.916-.007v-2.967l6.216-6.262h2.939v2.962l-6.216 6.271-2.939-.004Zm19.189 0-6.221-6.262v-2.963h2.939L186 39.292v2.962h-2.939Zm-27.942-.025V19.778h3.856v22.451h-3.856Zm-8.438 0a6.048 6.048 0 0 1-4.527-1.436 6.398 6.398 0 0 1-1.359-4.495V23.355h-3.96v-3.583h3.96v-6.205h3.856v6.205h5.554v3.583h-5.554v12.896c-.064.66.112 1.32.495 1.862a2.334 2.334 0 0 0 1.754.53h4v3.58l-4.219.005Zm-15.837 0V29.965a7.762 7.762 0 0 0-1.491-5.123 5.343 5.343 0 0 0-4.289-1.74 5.807 5.807 0 0 0-4.739 2.11 8.97 8.97 0 0 0-1.728 5.797v11.224h-3.855v-22.71h3.812v3.016a8.816 8.816 0 0 1 7.113-3.017A8.91 8.91 0 0 1 132.218 22c1.646 1.644 2.481 4.255 2.481 7.752v12.484l-3.855-.007ZM6.116 38.139 0 19.68h4.302l5.73 17.52a1.101 1.101 0 0 0 1.805.664 1.1 1.1 0 0 0 .373-.664l5.697-17.52h4.295l-6.116 18.458a5.15 5.15 0 0 1-4.987 3.85 5.15 5.15 0 0 1-4.987-3.85h.004Zm170.727-9.18v-2.962l6.214-6.26h2.939v2.96l-6.214 6.27-2.939-.008Zm-6.751 0-6.222-6.26v-2.96h2.939l6.222 6.26v2.965l-2.939-.005Z" fill="currentColor"/>
	</svg>