<svg xmlns="http://www.w3.org/2000/svg" viewBox="0 0 2249 581" width="2249" height="581"><defs><linearGradient id="g1" x2="1" gradientUnits="userSpaceOnUse" gradientTransform="matrix(152.09,173.82,-201.526,176.332,85.99,218.65)"><stop offset="0" stop-color="#3677bb"/><stop offset="1" stop-color="#3a348a"/></linearGradient><linearGradient id="g2" x2="1" gradientUnits="userSpaceOnUse" gradientTransform="matrix(152.09,173.82,-140.887,123.274,159.83,154.04)"><stop offset="0" stop-color="#3677bb"/><stop offset="1" stop-color="#3a348a"/></linearGradient><linearGradient id="g3" x2="1" gradientUnits="userSpaceOnUse" gradientTransform="matrix(175.63,-161.15,215.455,234.815,294.9,391.27)"><stop offset="0" stop-color="#ec6a24"/><stop offset="1" stop-color="#f7ad4c"/></linearGradient><linearGradient id="g4" x2="1" gradientUnits="userSpaceOnUse" gradientTransform="matrix(175.63,-161.14,127.591,139.065,230.25,320.81)"><stop offset="0" stop-color="#ec6a24"/><stop offset="1" stop-color="#f7ad4c"/></linearGradient></defs><style>		.s0 { fill: #221e20 } 		.s1 { fill: #6d6e70 } 		.s2 { fill: url(#g1) } 		.s3 { fill: url(#g2) } 		.s4 { fill: url(#g3) } 		.s5 { fill: url(#g4) } 		.s6 { fill: #000000 } 	</style><g><path class="s0" d="m783.6 389.89l-53.66-78.8-48.4 78.8h-37.9l67.54-106.19-67.91-99.81h39.02l52.16 76.54 47.65-76.54h37.9l-67.17 103.56 69.79 102.44z"/><path class="s0" d="m1041.95 293.89h-164.42c0.75 23.3 7.42 40.9 20.04 52.63q18.91 17.61 46.26 17.61 24.71 0 41.39-12.55c11.11-8.36 17.91-19.54 20.41-33.69h36.33c-2.5 14.4-8.05 27.14-16.67 38.37q-12.92 16.86-33.52 26.22-20.6 9.37-46.44 9.36-29.6 0-52.44-12.73-22.85-12.73-35.77-36.52-12.92-23.77-12.92-55.99 0-32.21 12.92-56.18 12.91-23.97 35.77-36.71 22.84-12.73 52.44-12.73c19.73 0 37.39 4.25 52.25 12.73q22.28 12.73 34.09 34.09 11.8 21.35 11.8 47.19c0 7.25-0.51 13.48-1.5 18.9zm-40.45-55.2q-8.61-15.35-23.6-22.85-14.99-7.49-32.58-7.49-28.1 0.01-47.19 17.41-19.11 17.42-20.6 51.12h131.47q1.12-22.84-7.49-38.2z"/><path class="s0" d="m1088.39 108.12q6.36-5.81 16.85-5.81 10.48 0 16.86 5.81 6.36 5.81 6.37 15.16-0.01 9.36-6.37 15.17-6.38 5.82-16.86 5.81-10.49 0.01-16.85-5.81-6.37-5.8-6.37-15.17 0-9.36 6.37-15.16zm33.34 75.77v206h-34v-206z"/><path class="s0" d="m1342.67 203.59q22.06 23.08 22.06 66.6v119.7h-34v-116.48q0-30.71-15.7-47.2-15.7-16.48-42.61-16.48c-17.94 0-33.65 6.06-44.86 18.17q-16.82 18.17-16.82 53v109h-34v-206h34v48.78q7.85-25.13 27.85-38.65 20-13.51 46.16-13.51 35.89 0 57.94 23.08z"/><path class="s0" d="m1552.77 196.27q20.74 15.02 28.96 40.15v-52.53h34v206h-34v-52.53q-8.22 25.14-28.96 40.15-20.74 15.01-50.63 15.01-27.28 0-48.58-12.76-21.3-12.75-33.44-36.59-12.15-23.82-12.15-56.09 0-32.27 12.15-56.28 12.14-24.02 33.44-36.77 21.3-12.76 48.58-12.76 29.9 0.01 50.63 15zm-91.52 35.08q-18.91 20.04-18.91 55.25 0 35.21 18.91 55.24 18.91 20.04 50.38 20.04 20.22 0 36.14-9.37 15.92-9.36 24.91-26.41 8.99-17.04 8.99-39.51 0-22.47-8.99-39.7-8.99-17.22-24.91-26.41-15.92-9.18-36.14-9.18-31.47 0-50.38 20.05z"/><path class="s0" d="m1804.77 195.74q20.74 14.99 28.96 40.05v-123.9h34v277h-34v-52.4q-8.22 25.08-28.96 40.05-20.74 14.98-50.63 14.97-27.28 0-48.58-12.73-21.3-12.72-33.44-36.5-12.15-23.76-12.15-55.96 0-32.2 12.15-56.15 12.14-23.96 33.44-36.69 21.3-12.73 48.58-12.73 29.9 0 50.63 14.97zm-91.07 35.61q-18.91 20.04-18.91 55.25 0 35.21 18.91 55.24 18.91 20.04 50.38 20.04 20.22 0 36.14-9.37 15.92-9.36 24.91-26.41 8.99-17.04 8.99-39.51 0-22.47-8.99-39.7-8.99-17.22-24.91-26.41-15.92-9.18-36.14-9.18-31.47 0-50.38 20.05z"/><path class="s0" d="m1922.89 108.12q6.36-5.81 16.85-5.81 10.48 0 16.86 5.81 6.36 5.81 6.37 15.16-0.01 9.36-6.37 15.17-6.38 5.82-16.86 5.81-10.49 0.01-16.85-5.81-6.37-5.8-6.37-15.17 0-9.36 6.37-15.16zm33.84 75.77v206h-34v-206z"/><path class="s0" d="m2177.67 203.59q22.06 23.08 22.06 66.6v119.7h-34v-116.48q0-30.71-15.7-47.2-15.7-16.48-42.61-16.48c-17.94 0-33.65 6.06-44.86 18.17q-16.82 18.17-16.82 53v109h-34v-206h34v48.78q7.85-25.13 27.85-38.65 20-13.51 46.16-13.51 35.88 0 57.94 23.08z"/></g><g><g><path class="s1" d="m496.35 159.55c22.12 37.64 33.93 80.63 33.93 125.45 0 66.31-25.82 128.66-72.71 175.54-46.89 46.89-109.23 72.71-175.54 72.71-50.78 0-99.23-15.16-140.2-43.32l-4.11 3.83c42.09 29.23 91.99 44.97 144.31 44.97 67.78 0 131.5-26.39 179.42-74.32 47.93-47.92 74.32-111.65 74.32-179.42 0-46.22-12.29-90.55-35.3-129.28l-4.11 3.83z"/><path class="s1" d="m33.76 285c0-66.31 25.82-128.66 72.71-175.54 46.89-46.89 109.23-72.71 175.54-72.71 44.56 0 87.31 11.67 124.8 33.55l4.19-3.91c-38.66-22.9-82.88-35.13-128.99-35.13-67.78 0-131.5 26.39-179.42 74.32-47.93 47.93-74.32 111.65-74.32 179.42 0 39.98 9.19 78.55 26.56 113.3l4.2-3.91c-16.53-33.62-25.28-70.83-25.27-109.39z"/></g><g><g><path class="s2" d="m189.74 323.04l-28.16-26.04c0 0-34.35 25.34-34.07 34.21 0.28 8.87 2.3 56.55 45.09 97.8 0 0 16.39 12.66 24.65 4.97 8.26-7.69 96.85-89.72 96.85-89.72l-26.28-25.72-78.08 70.94c0 0-22.93-36.22-21.24-50.3 0 0 15.98-13.33 21.24-16.14z"/><path class="s3" d="m246.94 274.72l-26.38 26.94-105.14-98.64c0 0 20.99-69.48 72.26-69.48 51.27 0 83.78 49.41 83.78 49.41l-33.44 15.42c0 0-11.7-16.72-34.37-24.52-22.66-7.8-39.57 7.8-43.28 20.06z"/></g><g><path class="s4" d="m402.45 297l-28.16 26.04c5.26 2.81 21.24 16.14 21.24 16.14 1.69 14.08-21.24 50.3-21.24 50.3l-62.58-56.85c1.91-4.09 2.98-8.64 2.98-13.45 0-17.58-14.25-31.83-31.83-31.83-17.58 0-31.83 14.25-31.83 31.83 0 15.41 10.96 28.26 25.5 31.2 20.7 19.17 83.36 77.19 90.24 83.6 8.26 7.7 24.65-4.97 24.65-4.97 42.79-41.26 44.81-88.93 45.09-97.8 0.28-8.87-34.07-34.21-34.07-34.21z"/><path class="s5" d="m360.37 173.85c22.66-7.8 39.57 7.8 43.28 20.06l-86.57 80.81 26.38 26.94 105.14-98.64c0 0-20.99-69.48-72.26-69.48-51.27 0-83.78 49.41-83.78 49.41l33.44 15.42c0 0 11.7-16.72 34.37-24.52z"/></g></g></g><g><path class="s6" d="m682.05 499.28h-24.32l-4.48 12.4h-7.68l20.16-55.44h8.4l20.08 55.44h-7.68zm-2.08-5.92l-10.08-28.16-10.08 28.16z"/><path class="s6" d="m703.01 477.8q2.72-5.08 7.56-7.88 4.84-2.8 11.08-2.8 8.08 0 13.32 3.92 5.24 3.92 6.92 10.88h-7.84q-1.12-4-4.36-6.32-3.24-2.32-8.04-2.32-6.24 0-10.08 4.28-3.84 4.27-3.84 12.12c0 5.23 1.28 9.36 3.84 12.24q3.84 4.32 10.08 4.32 4.8 0 8-2.24 3.2-2.24 4.4-6.4h7.84q-1.76 6.72-7.04 10.76-5.28 4.04-13.2 4.04-6.24 0-11.08-2.8-4.85-2.81-7.56-7.92-2.72-5.12-2.72-12c0-4.59 0.91-8.49 2.72-11.88z"/><path class="s6" d="m751.57 477.8q2.71-5.08 7.56-7.88 4.84-2.8 11.08-2.8 8.09 0 13.32 3.92 5.24 3.92 6.92 10.88h-7.84q-1.12-4-4.36-6.32-3.24-2.32-8.04-2.32-6.24 0-10.08 4.28-3.84 4.27-3.84 12.12c0 5.23 1.28 9.36 3.84 12.24q3.84 4.32 10.08 4.32 4.8 0 8-2.24 3.2-2.24 4.4-6.4h7.84q-1.76 6.72-7.04 10.76-5.28 4.04-13.2 4.04-6.24 0-11.08-2.8-4.84-2.81-7.56-7.92-2.72-5.12-2.72-12c0-4.59 0.91-8.49 2.72-11.88z"/><path class="s6" d="m808.09 509.6q-5-2.8-7.84-7.96-2.84-5.16-2.84-11.96c0-4.53 0.97-8.44 2.92-11.88q2.92-5.16 7.96-7.92 5.04-2.76 11.28-2.76 6.24 0 11.28 2.76 5.04 2.76 7.96 7.88 2.92 5.12 2.92 11.92 0 6.8-3 11.96-3 5.16-8.12 7.96-5.12 2.8-11.36 2.8c-4.16 0-7.83-0.93-11.16-2.8zm18.52-5.44q3.44-1.85 5.56-5.52 2.12-3.68 2.12-8.96 0-5.28-2.08-8.96-2.08-3.68-5.44-5.48-3.36-1.8-7.28-1.8c-2.61 0-5.11 0.6-7.32 1.8q-3.32 1.8-5.32 5.48-2 3.68-2 8.96c0 3.52 0.65 6.59 1.96 9.04q1.96 3.68 5.24 5.48 3.29 1.8 7.2 1.8 3.92 0 7.36-1.84z"/><path class="s6" d="m890.21 467.84v43.84h-7.28v-6.48q-2.08 3.36-5.8 5.24-3.72 1.88-8.2 1.88-5.12 0-9.2-2.12-4.08-2.11-6.44-6.36-2.36-4.24-2.36-10.32v-25.68h7.2v24.72q0 6.48 3.28 9.96 3.28 3.48 8.96 3.48c3.79 0 6.96-1.2 9.2-3.6q3.36-3.6 3.36-10.48v-24.08z"/><path class="s6" d="m936.85 471.88q4.96 4.84 4.96 13.96v25.84h-7.2v-24.8q0-6.56-3.28-10.04-3.28-3.48-8.96-3.48c-3.79 0-6.89 1.2-9.16 3.6q-3.4 3.6-3.4 10.48v24.24h-7.28v-43.84h7.28v6.24q2.16-3.36 5.88-5.2 3.72-1.84 8.2-1.84 7.99 0 12.96 4.84z"/><path class="s6" d="m962.61 473.84v25.84q0 3.2 1.36 4.52 1.36 1.32 4.72 1.32h5.36v6.16h-6.56q-6.08 0-9.12-2.8-3.04-2.8-3.04-9.2v-25.84h-5.68v-6h5.68v-11.04h7.28v11.04h11.44v6z"/><path class="s6" d="m982.85 477.8q2.72-5.08 7.48-7.88 4.76-2.8 10.6-2.8c3.89 0 7.17 0.83 10 2.48q4.24 2.48 6.32 6.24v-8h7.36v43.84h-7.36v-8.16q-2.16 3.84-6.44 6.36-4.28 2.52-9.96 2.52c-3.79 0-7.41-0.96-10.56-2.88q-4.73-2.88-7.44-8.08-2.72-5.2-2.72-11.84c0-4.43 0.91-8.41 2.72-11.8zm32.4 3.24q-2-3.68-5.4-5.64-3.4-1.96-7.48-1.96-4.08 0-7.44 1.92-3.36 1.92-5.36 5.6-2 3.67-2 8.64c0 3.31 0.67 6.28 2 8.76q2 3.72 5.36 5.68 3.36 1.96 7.44 1.96 4.08 0 7.48-1.96 3.4-1.96 5.4-5.68 2-3.72 2-8.68 0-4.96-2-8.64z"/><path class="s6" d="m1071.25 471.88q4.96 4.84 4.96 13.96v25.84h-7.2v-24.8q0-6.56-3.28-10.04-3.28-3.48-8.96-3.48c-3.79 0-6.89 1.2-9.16 3.6q-3.4 3.6-3.4 10.48v24.24h-7.28v-43.84h7.28v6.24q2.16-3.36 5.88-5.2 3.72-1.84 8.2-1.84 7.99 0 12.96 4.84z"/><path class="s6" d="m1088.13 477.8q2.71-5.08 7.56-7.88 4.84-2.8 11.08-2.8 8.08 0 13.32 3.92 5.24 3.92 6.92 10.88h-7.84q-1.12-4-4.36-6.32-3.24-2.32-8.04-2.32-6.24 0-10.08 4.28-3.84 4.27-3.84 12.12c0 5.23 1.28 9.36 3.84 12.24q3.84 4.32 10.08 4.32 4.8 0 8-2.24 3.2-2.24 4.4-6.4h7.84q-1.76 6.72-7.04 10.76-5.28 4.04-13.2 4.04-6.24 0-11.08-2.8-4.84-2.81-7.56-7.92-2.72-5.12-2.72-12c0-4.59 0.91-8.49 2.72-11.88z"/><path class="s6" d="m1174.45 467.84l-26.4 64.48h-7.52l8.64-21.12-17.68-43.36h8.08l13.76 35.52 13.6-35.52z"/><path class="s6" d="m1452.46 499.28h-24.32l-4.48 12.4h-7.68l20.16-55.44h8.4l20.08 55.44h-7.68zm-2.08-5.92l-10.08-28.16-10.08 28.16z"/><path class="s6" d="m1512.3 467.84v43.84h-7.28v-6.48q-2.08 3.36-5.8 5.24-3.72 1.88-8.2 1.88-5.12 0-9.2-2.12-4.08-2.11-6.44-6.36-2.36-4.24-2.36-10.32v-25.68h7.2v24.72q0 6.48 3.28 9.96 3.28 3.48 8.96 3.48c3.79 0 6.96-1.2 9.2-3.6q3.36-3.6 3.36-10.48v-24.08z"/><path class="s6" d="m1524.62 477.8q2.72-5.08 7.48-7.88 4.76-2.8 10.68-2.8 5.12 0 9.52 2.36 4.4 2.36 6.72 6.2v-23.2h7.36v59.2h-7.36v-8.24q-2.16 3.92-6.4 6.44-4.24 2.52-9.92 2.52c-3.79 0-7.43-0.96-10.6-2.88q-4.76-2.88-7.48-8.08-2.72-5.2-2.72-11.84c0-4.43 0.91-8.41 2.72-11.8zm32.4 3.24q-1.99-3.68-5.4-5.64-3.4-1.96-7.48-1.96-4.08 0-7.44 1.92-3.36 1.92-5.36 5.6-2 3.67-2 8.64c0 3.31 0.67 6.28 2 8.76q2 3.72 5.36 5.68 3.36 1.96 7.44 1.96 4.08 0 7.48-1.96 3.41-1.96 5.4-5.68 2-3.72 2-8.68 0-4.96-2-8.64z"/><path class="s6" d="m1578.94 459.28q-1.44-1.44-1.44-3.52 0-2.08 1.44-3.52 1.44-1.44 3.52-1.44c1.39 0 2.47 0.48 3.4 1.44q1.4 1.44 1.4 3.52 0 2.08-1.4 3.52-1.4 1.44-3.4 1.44c-1.33 0-2.56-0.48-3.52-1.44zm7.04 8.56v43.84h-7.28v-43.84z"/><path class="s6" d="m1607.25 473.84v25.84q0 3.2 1.36 4.52 1.36 1.32 4.72 1.32h5.36v6.16h-6.56q-6.08 0-9.12-2.8-3.04-2.8-3.04-9.2v-25.84h-5.68v-6h5.68v-11.04h7.28v11.04h11.44v6z"/><path class="s6" d="m1898.22 499.28h-24.32l-4.48 12.4h-7.68l20.16-55.44h8.4l20.08 55.44h-7.68zm-2.08-5.92l-10.08-28.16-10.08 28.16z"/><path class="s6" d="m1919.18 477.8q2.72-5.08 7.48-7.88 4.75-2.8 10.68-2.8 5.12 0 9.52 2.36 4.39 2.36 6.72 6.2v-23.2h7.36v59.2h-7.36v-8.24q-2.16 3.92-6.4 6.44-4.24 2.52-9.92 2.52c-3.79 0-7.43-0.96-10.6-2.88q-4.76-2.88-7.48-8.08-2.72-5.2-2.72-11.84c0-4.43 0.91-8.41 2.72-11.8zm32.4 3.24q-2-3.68-5.4-5.64-3.4-1.96-7.48-1.96-4.08 0-7.44 1.92-3.36 1.92-5.36 5.6-2 3.67-2 8.64c0 3.31 0.67 6.28 2 8.76q2 3.72 5.36 5.68 3.36 1.96 7.44 1.96 4.08 0 7.48-1.96 3.4-1.96 5.4-5.68 2-3.72 2-8.68 0-4.96-2-8.64z"/><path class="s6" d="m1989.58 504.96l13.6-37.12h7.76l-17.2 43.84h-8.48l-17.2-43.84h7.84z"/><path class="s6" d="m2018.38 459.28q-1.44-1.44-1.44-3.52 0-2.08 1.44-3.52 1.44-1.44 3.52-1.44c1.39 0 2.47 0.48 3.4 1.44q1.4 1.44 1.4 3.52 0 2.08-1.4 3.52-1.4 1.44-3.4 1.44c-1.33 0-2.56-0.48-3.52-1.44zm7.04 8.56v43.84h-7.28v-43.84z"/><path class="s6" d="m2044.3 510.68q-4-1.73-6.32-4.8-2.32-3.07-2.56-7.08h7.52q0.32 3.28 3.08 5.36 2.76 2.08 7.24 2.08 4.16 0 6.56-1.84 2.4-1.84 2.4-4.64c0-1.87-0.85-3.35-2.56-4.28q-2.56-1.4-7.92-2.76-4.88-1.28-7.96-2.6-3.08-1.32-5.28-3.92-2.2-2.59-2.2-6.84 0-3.36 2-6.16 2-2.8 5.68-4.44 3.67-1.64 8.4-1.64 7.27 0 11.76 3.68 4.49 3.67 4.8 10.08h-7.28q-0.24-3.44-2.76-5.52-2.52-2.08-6.76-2.08-3.92 0-6.24 1.68-2.32 1.68-2.32 4.4 0 2.16 1.4 3.56 1.4 1.4 3.52 2.24 2.11 0.84 5.88 1.88 4.72 1.27 7.68 2.52 2.96 1.24 5.08 3.72 2.12 2.47 2.2 6.48 0 3.6-2 6.48-2 2.88-5.64 4.52-3.64 1.64-8.36 1.64-5.04 0-9.04-1.72z"/><path class="s6" d="m2087.54 509.6q-5-2.8-7.84-7.96-2.84-5.16-2.84-11.96c0-4.53 0.97-8.44 2.92-11.88q2.92-5.16 7.96-7.92 5.04-2.76 11.28-2.76 6.24 0 11.28 2.76 5.04 2.76 7.96 7.88 2.92 5.12 2.92 11.92 0 6.8-3 11.96-3 5.16-8.12 7.96-5.12 2.8-11.36 2.8c-4.16 0-7.83-0.93-11.16-2.8zm18.52-5.44q3.44-1.85 5.56-5.52 2.12-3.68 2.12-8.96 0-5.28-2.08-8.96-2.08-3.68-5.44-5.48-3.36-1.8-7.28-1.8c-2.61 0-5.11 0.6-7.32 1.8q-3.32 1.8-5.32 5.48-2 3.68-2 8.96c0 3.52 0.65 6.59 1.96 9.04q1.96 3.68 5.24 5.48 3.28 1.8 7.2 1.8 3.92 0 7.36-1.84z"/><path class="s6" d="m2143.54 469.12q3.56-2.08 8.68-2.08v7.52h-1.92q-12.24 0-12.24 13.28v23.84h-7.28v-43.84h7.28v7.12q1.92-3.76 5.48-5.84z"/><path class="s6" d="m2198.38 467.84l-26.4 64.48h-7.52l8.64-21.12-17.68-43.36h8.08l13.76 35.52 13.6-35.52z"/></g></svg>