<svg id="YFM-Logo" xmlns="http://www.w3.org/2000/svg" viewBox="0 0 283.4645669291 53.0524983996">
  <path fill="#FFF" d="M162.0749796337.3903002547h16.799794154v3.56218221h-13.205646518v5.6752651079h12.6852269507v3.5453583016h-12.6852269507v6.1149299147h13.205646518v3.5778845246h-16.799794154V.3903002547ZM189.0084154805,23.1586563201c-4.618723659,0-8.1315557376-3.6754631934-8.1315557376-8.3917655212s3.5128320787-8.3917655213,8.1315557376-8.3917655213c2.2768356066,0,4.1958827606.9107342426,5.3993530098,2.4719929442v-2.1467307147h3.4477796327v22.5081462819h-3.6104107475v-8.3267130754c-1.2034702492,1.4311538098-3.0574649574,2.2768356065-5.2367218951,2.2768356065ZM189.3987301559,19.7434029103c2.8297813967,0,4.8789334426-2.0816782689,4.8789334426-4.9765121115s-2.0491520459-5.0090383344-4.8789334426-5.0090383344-4.9114596655,2.1142044918-4.9114596655,5.0090383344,2.0816782688,4.9765121115,4.9114596655,4.9765121115ZM201.939312347,15.8727823792V6.7003875071h3.4640427442v8.8471326426c0,2.634624059,1.3498382524,4.1958827606,3.5616214131,4.1958827606,2.2280462721,0,3.7242525279-1.6263111475,3.7242525279-4.1958827606V6.7003875071h3.4640427442v16.1330065835h-3.3664640754v-1.5612587016c-1.0083129114,1.2034702492-2.5370453902,1.8865209311-4.4073032098,1.8865209311-3.7567787508,0-6.4401921442-2.8297813967-6.4401921442-7.2858739409ZM222.0585187945,4.1633279198c1.2129380554,0,2.0980550147-.8851169593,2.0980550147-2.0652729051,0-1.2129380554-.8851169593-2.0980550147-2.0980550147-2.0980550147s-2.0980550147.8851169593-2.0980550147,2.0980550147c0,1.1801559458.8851169594,2.0652729051,2.0980550147,2.0652729051ZM220.2370360003,22.8333940906h3.6104107475V6.7003875071h-3.6104107475v16.1330065835ZM226.6952144996,6.7003875071h2.667150282V2.6671358612h3.6104107475v4.0332516459h4.2934614295v3.317674741h-4.2934614295v7.5135575016c0,1.2685226951.6179982361,1.9190471541,2.0816782688,1.9190471541h2.2117831607v3.3827271868h-2.4719929443c-3.6754631934,0-5.4318792327-1.5937849246-5.4318792327-4.9439858885v-7.871345954h-2.667150282v-3.317674741ZM245.5296208316,21.8744313105l-6.5215077016-15.189746118h3.9194098656l4.5536712131,10.6517772194,4.5699343246-10.6517772194h3.935672977l-9.8229193311,22.7033036195h-3.9194098656l3.285148518-7.5135575016ZM162.0749796337,30.2516161112h9.6765513278c4.5211449902,0,7.5786099475,2.8791315281,7.5786099475,7.3026978494s-3.0574649574,7.2858739409-7.5786099475,7.2858739409h-6.0824036918v7.8870482686h-3.5941476361v-22.4756200589ZM171.7840571845,41.2623033769c2.7647289508,0,3.9519360885-1.0901892658,3.9519360885-3.7079894163,0-2.6189217445-1.1872071377-3.7405156393-3.9519360885-3.7405156393h-6.1149299147v7.4485050557h6.1149299147ZM186.2582263976,43.2138767539h5.4156161213v-.6179982361c0-2.1142044918-1.2359964721-3.1875698492-3.8055680852-3.1875698492-2.2443093836,0-3.5128320787.9107342426-3.8055680852,2.4394667213h-3.6104107475c.3903146754-3.317674741,3.1225174033-5.5945103475,7.5135575016-5.5945103475,4.6837761049,0,7.3184001639,2.4394667213,7.3184001639,6.4401921442v10.0337789833h-3.4803058557v-1.8046445768c-1.0083129115,1.3492774555-2.9761494,2.1299068063-5.5131947901,2.1299068063-3.8706205311,0-6.0498774688-2.0491520459-6.0498774688-4.8946357571,0-3.0249387344,1.9515733771-4.9439858885,6.0173512459-4.9439858885ZM187.0551188599,50.0926121111c2.911096954,0,4.618723659-1.5119085703,4.618723659-4.1308303148v-.1132809834h-5.0903538918c-1.951573377,0-2.7647289508.7155769049-2.7647289508,2.0648543604,0,1.3986275869,1.0083129115,2.1792569377,3.2363591836,2.1792569377ZM198.797085345,36.5617033636h3.4477796328v2.2443093836c.9107342426-1.3986275869,2.4394667213-2.2443093836,4.7163023278-2.2443093836h1.1058915803v3.6104107475h-1.5287324787c-2.9273600656,0-4.1308303147,1.5937849246-4.1308303147,4.0983040918v8.4242917442h-3.6104107475v-16.1330065835ZM210.2317759558,36.5617033636h2.667150282v-4.0332516459h3.6104107475v4.0332516459h4.2934614295v3.317674741h-4.2934614295v7.5135575016c0,1.2685226951.6179982361,1.9190471541,2.0816782689,1.9190471541h2.2117831606v3.3827271869h-2.4719929442c-3.6754631934,0-5.4318792328-1.5937849246-5.4318792328-4.9439858885v-7.871345954h-2.667150282v-3.317674741ZM223.242265136,36.5617033636h3.4477796328v1.6588373705c1.0408391344-1.2359964721,2.6996765049-1.9840996,4.7488285508-1.9840996,3.9681992,0,6.7979805967,2.8297813967,6.7979805967,7.285873941v9.1723948721h-3.6104107475v-8.8471326426c0-2.634624059-1.4311538098-4.1958827606-3.7730418623-4.1958827606-2.4069404983,0-4.0007254229,1.6263111475-4.0007254229,4.1958827606v8.8471326426h-3.6104107475v-16.1330065835ZM259.2813201653,36.5617033636h3.4477796328v2.2443093836c.9107342426-1.3986275869,2.4394667213-2.2443093836,4.7163023278-2.2443093836h1.1058915803v3.6104107475h-1.5287324787c-2.9273600656,0-4.1308303147,1.5937849246-4.1308303147,4.0983040918v8.4242917442h-3.6104107475v-16.1330065835ZM276.9267961161,49.9625072193c2.4557298328,0,3.5616214131-.6179982361,3.5616214131-1.9998019145,0-.9926105969-.5692089016-1.333575141-3.4152534098-1.9358710625l-1.2685226951-.2108596522c-3.0412018459-.6348221445-5.6270365705-1.8539947082-5.6270365705-4.7331262363,0-3.1550436262,3.008675623-4.9439858885,6.3426134754-4.9439858885,4.4886187672,0,6.7166650393,3.0092364199,6.6678757049,6.0016489313h-3.0086756229c.0487893344-1.7081875018-.7643662393-3.0574649573-3.7242525278-3.0574649573-2.1792569377,0-3.2363591836.7155769049-3.2363591836,1.9998019145,0,.992610597.7806293508,1.3986275869,3.285148518,1.8382923937l1.301048918.2276835606c3.9194098656.683050682,5.6595627934,2.2925379211,5.6595627934,4.8138809967,0,3.3008508325-3.0737280688,4.9271619801-6.5377708131,4.9271619801-4.5048818787,0-7.1069797147-2.5695716131-7.0744534917-6.2282108981h2.9761494c0,2.3093618295,1.2522595836,3.3008508326,4.0983040918,3.3008508326ZM256.7117513769,44.5307526854c0-4.7815555594-3.3501987354-8.2942168283-8.0664865684-8.2942168283-4.5861910727,0-8.1966320722,3.6752700332-8.1966320722,8.3917040971,0,4.6836783415,3.6104409995,8.391704097,8.3592408365,8.391704097,3.1142308014,0,5.7097318455-1.6522142314,7.1455243402-4.3966758222l-3.2469597178-1.105505628c-.7307645668,1.4186347354-1.9693403167,2.3471034833-3.8985646224,2.3471034833-2.5370086829,0-4.3585095565-1.4962346013-4.7813605848-4.130730553h12.6202143806c.0650240083-.3903390242.0650240083-.8130438217.0650240083-1.2033828459ZM244.124097744,43.0996395796c.5204357844-2.3420341453,2.2443031583-3.7407814778,4.4886550603-3.7407814778,2.4394239268,0,4.1308280403,1.5613560969,4.4235335648,3.7407814778h-8.9121886251ZM24.059704891,22.8133939475L10.0070839339,1.2505391755H0l19.6232708666,30.4428963576v20.8989040817h8.8752592277v-21.1157043071L47.6084945448,1.2505391755h-9.5655128865l-13.9832767673,21.562854772ZM53.0419420666,52.5923396148h8.9461975367V9.5582919308h24.9059525976V1.2505391755h-33.8521501343v51.3418004393ZM133.8733555195,1.194550363l-17.3406001501,26.9153049736L98.7059488315,1.194550363h-5.7765209438l.3097774673,51.3977892518h8.8311322687V20.4174326329l11.6958236929,18.1139776568h4.7727931976l11.6209000856-18.2311454257v32.2920747508h9.1858186617V1.194550363h-5.4723177419ZM72.4752979418,22.7095429982c-3.1648292209,0-5.7304302212,2.5656010002-5.7304302212,5.7304302211s2.5656010002,5.7304302211,5.7304302212,5.7304302211,5.7304302211-2.5656010002,5.7304302211-5.7304302211-2.5656010002-5.7304302211-5.7304302211-5.7304302211Z"></path>
</svg>