<svg width="1693" height="439" viewBox="0 0 1693 439" fill="none" xmlns="http://www.w3.org/2000/svg">
<path d="M772.951 261.362C773.59 261.716 773.826 262.527 773.453 263.158C763.556 280.088 749.525 294.855 734.969 303.898C716.226 315.864 691.407 321.309 666.596 321.309C635.717 321.309 610.358 313.693 588.303 291.933C566.248 270.173 554.12 238.619 554.12 204.353C554.12 170.087 566.804 134.724 591.059 110.245C610.358 91.2041 635.717 79.2388 668.804 79.2388C705.742 79.2388 729.45 95.0123 743.237 109.156C773.012 139.621 775.768 182.052 775.768 205.99V211.225C775.768 211.939 775.181 212.517 774.458 212.517H610.693C609.924 212.517 609.3 213.163 609.361 213.922C610.769 229.891 617.849 247.662 629.101 258.756C641.777 271.262 657.224 273.44 670.448 273.44C685.339 273.44 696.363 270.181 707.387 262.016C716.37 255.233 723.329 246.46 728.262 238.078C728.62 237.469 729.381 237.267 730.005 237.612L772.935 261.37L772.951 261.362ZM719.035 168.982C719.865 168.982 720.504 168.224 720.344 167.42C717.923 155.567 712.023 145.27 704.098 137.976C696.926 131.449 685.354 124.922 667.707 124.922C648.964 124.922 636.829 132.538 629.665 139.606C622.318 146.344 616.464 156.529 613.54 167.352C613.319 168.171 613.967 168.982 614.827 168.982H719.035Z" fill="#0B4251"/>
<path d="M1148.2 152.322C1148.2 153.449 1146.84 153.997 1146 153.224C1121.96 131.111 1098.64 127.01 1082.59 127.01C1057.22 127.01 1041.24 137.345 1031.31 147.14C1021.38 156.934 1011.46 174.338 1011.46 199.906C1011.46 225.474 1021.94 244.515 1032.41 254.85C1044.54 266.275 1061.63 273.343 1081.49 273.343C1102.67 273.343 1127.43 265.306 1145.97 246.34C1146.79 245.499 1148.21 246.032 1148.21 247.196V302.531C1148.21 302.982 1147.99 303.395 1147.6 303.628C1134.31 311.71 1112.93 321.204 1077.63 321.204C1039.04 321.204 1011.47 310.328 989.413 287.479C972.87 270.616 956.327 243.418 956.327 201.528C956.327 159.638 974.522 129.721 991.613 112.859C1009.81 94.9068 1039.03 79.1333 1084.79 79.1333C1102.27 79.1333 1122.99 81.7998 1147.5 95.072C1147.93 95.3049 1148.2 95.7556 1148.2 96.2288V152.307V152.322Z" fill="#0B4251"/>
<path d="M1426.28 199.643C1426.28 269.82 1372.24 320.948 1302.22 320.948C1232.2 320.948 1178.16 269.812 1178.16 199.643C1178.16 129.473 1232.2 78.8779 1302.22 78.8779C1372.24 78.8779 1426.28 128.925 1426.28 199.643ZM1371.13 200.184C1371.13 147.958 1336.39 126.747 1302.21 126.747C1268.03 126.747 1233.29 147.966 1233.29 200.184C1233.29 244.244 1259.75 273.08 1302.21 273.08C1344.67 273.08 1371.13 244.252 1371.13 200.184Z" fill="#0B4251"/>
<path d="M571.988 79.5091H501.004V45.7688C501.004 20.8467 480.524 0.634089 455.257 0.634089H449.577C448.131 0.634089 446.966 1.79081 446.966 3.21043V79.5015H350.211V2.86491C350.211 1.43779 349.039 0.288574 347.6 0.288574H341.921C316.66 0.288574 296.181 20.4937 296.181 45.4158V79.5091H228.47C227.283 79.5091 226.727 80.9287 227.602 81.7249C232.802 86.4644 237.743 91.5795 242.349 97.1003C249.772 106.009 256.426 116.104 262.356 127.107C262.805 127.941 263.681 128.467 264.632 128.467H296.181V312.581C296.181 313.295 296.767 313.873 297.491 313.873H348.909C349.633 313.873 350.219 313.295 350.219 312.581V128.467H446.973V312.934C446.973 313.648 447.56 314.226 448.283 314.226H499.702C500.425 314.226 501.011 313.648 501.011 312.934V128.467H532.704C533.686 128.467 534.577 127.911 535.019 127.047C542.365 112.446 551.79 99.1057 563.096 87.6963C565.273 85.548 570.039 81.2667 571.539 79.9222L571.996 79.5091H571.988Z" fill="#0B4251"/>
<path d="M261.625 288.335C261.595 287.156 261.557 285.984 261.519 284.812C260.369 249.863 256.509 219.645 249.985 193.965C246.81 181.451 242.996 170.019 238.558 159.631C232.262 144.887 224.694 132.253 215.878 121.67C208.707 113.054 200.698 105.791 191.874 99.842C190.824 99.136 189.765 98.4449 188.692 97.7764C186.545 96.4395 184.36 95.1701 182.122 93.9833C181.284 93.5401 180.447 93.1045 179.594 92.6839C179.031 92.3984 178.46 92.1205 177.896 91.8501C176.709 91.2793 175.506 90.731 174.296 90.1977C173.785 89.9723 173.275 89.7545 172.765 89.5367C170.87 88.7405 168.944 87.9894 166.995 87.2833C166.561 87.1256 166.119 86.9678 165.685 86.8176C159.153 84.5492 152.294 82.7991 145.107 81.5448C143.759 81.3119 142.397 81.0941 141.026 80.8913C139.656 80.6885 138.27 80.5082 136.877 80.343C135.233 80.1477 133.566 79.9825 131.891 79.8397C130.01 79.6745 128.115 79.5468 126.196 79.4416C124.019 79.329 121.811 79.2539 119.58 79.2163C53.8946 79.2313 0.65625 131.757 0.65625 196.549C0.65625 261.34 53.8946 313.873 119.573 313.873C142.26 313.873 162.472 308.623 179.526 299.407C178.422 262.196 175.194 234.059 169.56 212.713C163.12 223.904 151.685 237.575 132.964 242.066C103.608 249.112 73.6124 228.726 71.9071 198.967C70.3388 171.574 92.3939 148.875 119.824 148.875C120.509 148.875 121.179 148.89 121.857 148.913C121.872 148.913 121.887 148.913 121.91 148.913C122.557 148.935 123.204 148.958 123.844 148.995C124.719 149.048 125.579 149.123 126.432 149.213C127.285 149.303 128.13 149.408 128.96 149.536C131.038 149.844 133.048 150.265 134.989 150.79C135.766 151.001 136.535 151.226 137.296 151.466C141.08 152.676 144.612 154.306 147.901 156.319C148.556 156.724 149.21 157.137 149.85 157.573C150.398 157.949 150.946 158.339 151.479 158.73C151.647 158.85 151.806 158.978 151.974 159.105C152.355 159.391 152.728 159.684 153.101 159.977C153.276 160.119 153.451 160.262 153.626 160.405C154.007 160.72 154.38 161.036 154.76 161.366C154.897 161.486 155.042 161.606 155.179 161.727C155.651 162.147 156.115 162.568 156.572 163.011C156.671 163.109 156.77 163.199 156.869 163.297C157.311 163.717 157.745 164.153 158.171 164.596C158.316 164.746 158.468 164.904 158.613 165.062C158.879 165.347 159.145 165.633 159.412 165.925C159.762 166.309 160.112 166.707 160.455 167.105C160.584 167.255 160.721 167.413 160.851 167.57C161.384 168.201 161.909 168.847 162.427 169.501C162.549 169.643 162.663 169.794 162.777 169.936C168.403 177.215 172.963 186.198 176.656 196.571C176.694 196.669 176.724 196.766 176.762 196.864C176.945 197.39 177.135 197.923 177.31 198.456C177.394 198.697 177.478 198.937 177.554 199.177C177.744 199.741 177.927 200.312 178.11 200.882C178.186 201.123 178.27 201.363 178.346 201.604C178.528 202.182 178.711 202.76 178.886 203.346C178.962 203.587 179.038 203.834 179.107 204.075C179.282 204.668 179.457 205.262 179.632 205.855C179.701 206.103 179.777 206.343 179.845 206.591C180.013 207.192 180.18 207.8 180.348 208.409C180.416 208.657 180.485 208.912 180.553 209.16C180.713 209.768 180.881 210.384 181.033 211.008C181.102 211.263 181.163 211.518 181.231 211.774C181.391 212.397 181.543 213.028 181.695 213.652C181.756 213.907 181.825 214.162 181.886 214.425C182.038 215.056 182.183 215.695 182.327 216.333C182.388 216.596 182.449 216.859 182.51 217.122C182.655 217.76 182.792 218.399 182.936 219.045C182.997 219.315 183.058 219.593 183.111 219.863C183.249 220.502 183.378 221.155 183.515 221.801C183.576 222.079 183.629 222.364 183.69 222.642C183.819 223.288 183.949 223.934 184.071 224.588C184.124 224.881 184.185 225.174 184.238 225.467C184.36 226.105 184.474 226.759 184.596 227.404C184.649 227.712 184.71 228.02 184.764 228.328C184.878 228.967 184.992 229.613 185.098 230.259C185.152 230.582 185.213 230.905 185.266 231.228C185.373 231.866 185.479 232.505 185.578 233.151C185.631 233.489 185.692 233.827 185.746 234.172C185.845 234.796 185.944 235.426 186.035 236.057C186.088 236.418 186.149 236.786 186.202 237.146C186.294 237.762 186.377 238.378 186.469 239.002C186.522 239.385 186.583 239.775 186.636 240.158C186.72 240.759 186.804 241.368 186.88 241.976C186.933 242.389 186.994 242.795 187.047 243.208C187.124 243.794 187.2 244.38 187.268 244.973C187.322 245.416 187.382 245.852 187.436 246.295C187.504 246.858 187.573 247.422 187.634 247.985C187.687 248.458 187.748 248.939 187.801 249.412C187.862 249.946 187.915 250.479 187.976 251.012C188.037 251.53 188.09 252.041 188.144 252.559C188.197 253.055 188.243 253.551 188.296 254.054C188.357 254.618 188.41 255.181 188.471 255.744C188.517 256.195 188.555 256.653 188.601 257.111C188.661 257.727 188.722 258.336 188.776 258.951C188.814 259.35 188.844 259.755 188.882 260.153C188.943 260.837 189.004 261.513 189.065 262.196C189.095 262.519 189.118 262.842 189.149 263.173C189.21 263.939 189.278 264.698 189.339 265.471C189.354 265.712 189.377 265.952 189.392 266.192C189.461 267.049 189.522 267.912 189.59 268.776C189.598 268.896 189.605 269.009 189.613 269.129C190.161 276.693 190.565 284.467 190.862 292.421C190.945 294.66 191.021 296.921 191.082 299.181C191.143 301.39 191.204 303.613 191.25 305.844C191.303 308.09 191.341 310.351 191.379 312.619C191.387 313.325 191.965 313.888 192.681 313.888H260.582C261.305 313.888 261.892 313.31 261.892 312.596V302.509C261.876 300.15 261.846 297.807 261.808 295.478C261.77 293.075 261.717 290.701 261.648 288.343L261.625 288.335Z" fill="#91D3C9"/>
<path d="M959.022 92.323C944.268 83.7902 927.1 78.8779 908.753 78.8779C859.603 78.8779 818.797 114.03 810.681 160.232C809.714 165.722 809.189 171.356 809.189 177.109V312.588C809.189 313.302 809.775 313.88 810.498 313.88H861.247C861.97 313.88 862.557 313.302 862.557 312.588V196.773C862.557 181.736 862.557 160.247 877.257 144.668C887.604 133.927 899.039 132.313 910.466 132.313C915.719 132.313 925.022 132.808 936.419 139.591C937.089 139.989 937.972 139.749 938.292 139.05L959.464 92.5708C959.319 92.4882 959.174 92.4056 959.03 92.323H959.022Z" fill="#0B4251"/>
<path d="M1692.22 198.006C1692.22 125.109 1640.39 78.8706 1579.18 78.8706C1578.59 78.8706 1578.04 78.9157 1577.46 78.9232C1576.78 78.9157 1576.11 78.8706 1575.43 78.8706C1566.91 78.8706 1558.58 79.7194 1550.53 81.3343C1519.82 86.9001 1499.04 101.449 1485.03 119.649C1472.69 134.378 1460.57 156.679 1458.07 188.594C1457.88 190.998 1456.24 216.558 1456.24 224.122V437.162C1456.24 437.875 1456.83 438.454 1457.55 438.454H1508.97C1509.69 438.454 1510.28 437.875 1510.28 437.162V287.223C1533.21 314.985 1563.49 320.393 1577.46 320.904C1578.28 320.934 1579.05 320.956 1579.75 320.956C1604.38 320.956 1629.43 311.815 1649.63 294.855C1650.49 294.134 1651.36 293.405 1652.19 292.654C1652.41 292.459 1652.63 292.263 1652.85 292.068C1677.26 270.263 1692.23 237.762 1692.23 200.184C1692.23 199.816 1692.21 199.455 1692.21 199.087C1692.21 198.727 1692.23 198.381 1692.23 198.013L1692.22 198.006ZM1572.57 273.08C1538.39 273.08 1506.96 248.601 1506.96 200.732C1506.96 152.863 1538.39 126.747 1572.57 126.747C1611.71 126.747 1637.07 159.391 1637.07 200.184C1637.07 240.977 1611.71 273.08 1572.57 273.08Z" fill="#0B4251"/>
</svg>
